<?xml version="1.0" encoding="UTF-8"?>
<svg width="90" height="90" version="1.1" viewBox="0 0 90.000001 90.000001" xmlns="http://www.w3.org/2000/svg">
 <g transform="translate(-126.43 -401.65)">
  <path d="m171.43 401.65a45 45 0 0 0 -45 45 45 45 0 0 0 45 45 45 45 0 0 0 45 -45 45 45 0 0 0 -45 -45zm5.1113 17.256a27.744 27.744 0 0 1 27.744 27.744 27.744 27.744 0 0 1 -27.744 27.744 27.744 27.744 0 0 1 -12.453 -3.002c0.4957-1.1696 0.7714-2.4583 0.7714-3.8125v-9.7343c0-3.3706-1.6965-6.3299-4.2851-8.0762a11.682 16.062 0 0 0 1.3633 -7.5 11.682 16.062 0 0 0 -6.0664 -14.082 27.744 27.744 0 0 1 20.67 -9.2813zm-26.285 10.221a8.7613 13.142 0 0 1 8.7617 13.143 8.7613 13.142 0 0 1 -1.0664 6.2598c-0.8945-0.2687-1.8436-0.418-2.8281-0.418h-9.7344c-0.9872 0-1.9374 0.1472-2.8339 0.418a8.7613 13.142 0 0 1 -1.0606 -6.2598 8.7613 13.142 0 0 1 8.7617 -13.143zm16.998 10.223-0.8926 2 5.0586 2.2578-5.1016 2.5429 0.9766 1.961 7.1797-3.5801a1.0953 1.0953 0 0 0 -0.043 -1.9785l-7.1777-3.2031zm18.777 0.7304a3.6506 3.6506 0 0 0 -3.6504 3.6504 3.6506 3.6506 0 0 0 3.6504 3.6504 3.6506 3.6506 0 0 0 3.6504 -3.6504 3.6506 3.6506 0 0 0 -3.6504 -3.6504zm-39.67 10.951h7.7891c3.6403 0 6.6716 2.4773 7.5332 5.8418h-12.887v1.459h13.117c0 0.1617 0.023 0.3217 0.023 0.4863v3.1641h-13.143v1.4609h13.143v3.1641c0 0.164 0 0.3254-0.023 0.4863h-13.117v1.4609h12.887c-0.8616 3.3643-3.8929 5.8399-7.5332 5.8399h-7.7891c-4.3145 0-7.7871-3.4729-7.7871-7.7871v-7.7891c0-4.3143 3.4726-7.7871 7.7871-7.7871zm23.174 4.4629-1.8535 1.168s3.7145 6.0058 10.318 6.0058 10.318-6.0058 10.318-6.0058l-1.8535-1.168s-3.2149 4.9844-8.4648 4.9844-8.4649-4.9844-8.4649-4.9844z" fill="#5c8ece"/>
 </g>
</svg>
