<?xml version="1.0" encoding="UTF-8"?>
<svg version="1.1" viewBox="0 0 300 300" xmlns="http://www.w3.org/2000/svg">
 <g transform="translate(150 150)">
  <path d="m-127.33 50.902v-101.78h254.59v101.78h-254.59z"/>
  <path d="m9.9476e-14 75.571l-75.571-75.571 75.571-75.571 75.571 75.571-75.571 75.571z" fill="#1c0b7f"/>
  <path d="m1.0658e-14 45.823l-45.823-45.823 45.823-45.823 45.823 45.823-45.823 45.823z" fill="#ff383d"/>
  <path d="m-85.907-5.1342q0-0.87021 0-2.5758-1.7056 0-5.1516 0 0 5.1516 0 15.42 1.7404 0 5.1516 0 0-1.7404 0-5.1516-0.8702 0-2.5758 0 0-1.7056 0-5.1168 2.5758 0 7.6926 0 0 1.7056 0 5.1168 0 2.5758 0 7.6926 0 1.0791-0.7309 1.81-0.7658 0.7658-1.8101 0.7658-3.446 0-10.268 0-1.079 0-1.81-0.7658-0.7658-0.7309-0.7658-1.81 0-2.5758 0-7.7274 0-2.1233 0-5.2908 0-3.2372 0-7.5186 0-1.0443 0.7658-1.81 0.731-0.731 1.81-0.731 3.4112 0 10.268 0 1.0443 0 1.8101 0.731 0.7309 0.7657 0.7309 1.81 0 1.7404 0 5.1516-1.7056 0-5.1168 0z" fill="#fff"/>
  <path d="m-60.253 12.827q-1.7056 0-5.1168 0 0-3.4112 0-10.268-1.7056 0-5.1516 0 0 3.4112 0 10.268-1.7056 0-5.1168 0 0-2.8891 0-8.702 0-2.4018 0-5.987 0-3.62 0-8.4236 0-1.0443 0.7657-1.81 0.731-0.731 1.8101-0.731 3.4112 0 10.268 0 1.0442 0 1.81 0.731 0.731 0.7657 0.731 1.81 0 7.7274 0 23.113zm-5.1168-15.385q0-0.31327 0-0.90501 0-1.4271 0-4.2466-1.7056 0-5.1516 0 0 1.7056 0 5.1516 1.7404 0 5.1516 0z" fill="#fff"/>
  <path d="m-29.448-10.286q0 7.7274 0 23.113-1.7056 0-5.1168 0 0-6.8572 0-20.537-1.7056 0-5.1516 0 0 6.8572 0 20.537-1.7056 0-5.1168 0 0-6.8572 0-20.537-1.7056 0-5.1516 0 0 6.8572 0 20.537-1.7056 0-5.1168 0 0-2.8891 0-8.702 0-2.4018 0-5.987 0-3.62 0-8.4236 0-1.0443 0.7657-1.81 0.731-0.731 1.8101-0.731 2.541 0 7.6926 0 1.079 0 1.81 0.731 0.7658 0.7657 0.7658 1.81 0-1.0443 0.731-1.81 0.7657-0.731 1.81-0.731 2.5758 0 7.7274 0 1.0442 0 1.81 0.731 0.731 0.7657 0.731 1.81z" fill="#fff"/>
  <path d="m-8.9109-7.71q0-1.2879 0-5.1168-2.541 0-10.268 0-1.2531 0-5.1168 0 0 1.2879 0 5.1168 0 1.2879 0 5.1516 0 1.2531 0 5.1168 0 0.8354 0 2.1233t0 3.0283q0 1.7056 0 5.1168 1.7056 0 5.1168 0 3.446 0 10.268 0 0-1.7056 0-5.1168-3.4112 0-10.268 0 0-1.7404 0-5.1516 2.5758 0 7.7274 0 0-1.7056 0-5.1168-2.5758 0-7.7274 0 0-1.7404 0-5.1516 3.446 0 10.268 0z" fill="#fff"/>
  <path d="m32.163-10.286q0 6.8572 0 20.537 0 1.0791-0.7309 1.81-0.7658 0.7658-1.81 0.7658-3.4461 0-10.268 0-1.079 0-1.81-0.7658-0.7658-0.7309-0.7658-1.81 0-2.5758 0-7.7274 0-2.1233 0-5.2908 0-3.2372 0-7.5186 0-1.0443 0.7658-1.81 0.731-0.731 1.81-0.731 3.4112 0 10.268 0 1.0442 0 1.81 0.731 0.7309 0.7657 0.7309 1.81zm-10.268 17.996q1.7404 0 5.1516 0 0-0.34808 0-1.0094 0-4.8035 0-14.411-1.7056 0-5.1516 0 0 2.5758 0 7.6926 0 2.5758 0 7.7274z" fill="#fff"/>
  <path d="m36.618-12.827q1.4271 0 5.7433 0 0.9747 4.6295 3.8637 18.588 0.9747-4.6295 3.8638-18.588 1.4271 0 5.7433 0-1.7404 6.4047-7.0312 25.654-1.288 0-5.1517 0-2.3321-8.5628-7.0312-25.654z" fill="#fff"/>
  <path d="m75.638-7.71q0-1.2879 0-5.1168-2.5409 0-10.268 0-1.2531 0-5.1168 0 0 1.2879 0 5.1168 0 1.2879 0 5.1516 0 1.2531 0 5.1168 0 0.8354 0 2.1233t0 3.0283q0 1.7056 0 5.1168 1.7056 0 5.1168 0 3.446 0 10.268 0 0-1.7056 0-5.1168-3.4112 0-10.268 0 0-1.7404 0-5.1516 2.5758 0 7.7275 0 0-1.7056 0-5.1168-2.5759 0-7.7275 0 0-1.7404 0-5.1516 3.446 0 10.268 0z" fill="#fff"/>
  <path d="m93.634-0.017404q1.0442 0 1.81 0.76578 0.731 0.73097 0.731 1.81 0 3.4112 0 10.268-1.7056 0-5.1168 0 0-3.4112 0-10.268-1.7056 0-5.1516 0 0 3.4112 0 10.268-1.7056 0-5.1168 0 0-3.4112 0-10.268 0-1.7056 0-5.1168 0-1.7056 0-4.2814t0-5.987q1.7056 0 5.1168 0 2.5758 0 7.7274 0 1.0442 0 1.81 0.731 0.731 0.7657 0.731 1.81 0 2.5758 0 7.7274 0 1.0442-0.731 1.81-0.7658 0.73097-1.81 0.73097zm-2.5758-2.541q0-0.31327 0-0.90501 0-1.4271 0-4.2466-1.7056 0-5.1516 0 0 1.7056 0 5.1516 1.7404 0 5.1516 0z" fill="#fff"/>
 </g>
</svg>
